<svg width="18" height="13" viewBox="0 0 18 13" fill="none" xmlns="http://www.w3.org/2000/svg">
<path id="Vector" d="M9 0C4.90909 0 1.41545 2.69533 0 6.5C1.41545 10.3047 4.90909 13 9 13C13.0909 13 16.5845 10.3047 18 6.5C16.5845 2.69533 13.0909 0 9 0ZM9 10.8333C6.74182 10.8333 4.90909 8.892 4.90909 6.5C4.90909 4.108 6.74182 2.16667 9 2.16667C11.2582 2.16667 13.0909 4.108 13.0909 6.5C13.0909 8.892 11.2582 10.8333 9 10.8333ZM9 3.9C7.64182 3.9 6.54545 5.06133 6.54545 6.5C6.54545 7.93867 7.64182 9.1 9 9.1C10.3582 9.1 11.4545 7.93867 11.4545 6.5C11.4545 5.06133 10.3582 3.9 9 3.9Z" fill="#CCCCCC"/>
</svg>
