<svg width="72" height="53" viewBox="0 0 72 53" fill="none" xmlns="http://www.w3.org/2000/svg">
<g id="2025986 1" clip-path="url(#clip0_1_3162)">
<g id="Group">
<path id="Vector" d="M53.4316 0.381374C53.2573 0.588886 52.4135 1.58719 51.5529 2.60793C45.416 9.86529 39.3073 17.2797 31.3873 27.0889C27.191 32.2823 25.751 34.0546 24.2323 35.883C21.746 38.8667 20.4973 40.1566 20.081 40.1566C19.9066 40.1566 19.5073 39.7584 18.9841 39.063C18.0616 37.8403 16.9029 35.939 14.0623 30.9868C11.3173 26.1971 10.3779 24.6604 9.83226 24.0379L9.63538 23.8135L9.11788 24.0042C7.32351 24.6492 5.22538 25.9616 3.14976 27.7395C2.09788 28.6424 -0.000244141 30.7624 -0.000244141 30.9195C-0.000244141 31.1438 3.24538 35.5184 6.74413 40.0164C11.0248 45.5183 14.5348 49.7527 16.1379 51.3679C16.8354 52.069 17.6904 52.5457 18.776 52.843C19.3666 53.0056 20.7279 53.0168 21.431 52.871C22.0048 52.7476 23.2254 52.3494 23.7485 52.1083C24.1816 51.912 24.2773 51.7998 25.8748 49.7751C28.676 46.2025 30.0373 44.5144 32.0623 42.0915C42.4573 29.6407 54.371 17.8517 67.1735 7.3583C68.3604 6.38804 71.2404 4.08296 71.6791 3.75767C71.8198 3.65111 71.9435 3.54455 71.9435 3.51651C71.9435 3.49407 71.8591 3.47725 71.7579 3.47725C71.4485 3.47725 69.8285 3.36508 68.8498 3.27534C63.056 2.75375 57.9541 1.6545 53.831 0.0336494C53.7748 0.0112152 53.6454 0.123383 53.4316 0.381374Z" fill="#5ACAEA"/>
</g>
</g>
<defs>
<clipPath id="clip0_1_3162">
<rect width="72" height="53" fill="white" transform="translate(-0.000244141)"/>
</clipPath>
</defs>
</svg>
